# xmcd CD database file
#
# Track frame offsets:
#	150
#	17940
#	30058
#	44736
#	64622
#	85552
#	102921
#	121435
#	142590
#	159942
#
# Disc length: 2380 seconds
#
# Revision: 0
# Processed by: cddbd v1.5.2PL0 Copyright (c) Steve Scherf et al.
# Submitted via: CDex 1.70beta2
#
DISCID=6e094a0a
DTITLE=Yukie Nishimura - あなたが輝くとき Disk 1
DYEAR=2007
DGENRE=New Age
TTITLE0=あなたが輝くとき
TTITLE1=何かいいこと
TTITLE2=まぁるい氣持ち
TTITLE3=靜かな誓い (映畵「MAYU ココロの星」サブテ-マ）
TTITLE4=旅立ち
TTITLE5=とっておきの時間
TTITLE6=ちょっと休んで
TTITLE7=星がきらめくように (映畵「MAYU ココロの星」メインテ-マ)
TTITLE8=その先にあるもの
TTITLE9=未來へ
EXTD=YEAR: 2007
EXTT0=
EXTT1=
EXTT2=
EXTT3=
EXTT4=
EXTT5=
EXTT6=
EXTT7=
EXTT8=
EXTT9=
PLAYORDER=
